<?xml version="1.0" encoding="utf-8"?>
<!-- Generator: Adobe Illustrator 27.0.0, SVG Export Plug-In . SVG Version: 6.00 Build 0)  -->
<svg version="1.1"
	 id="svg2" xmlns:sodipodi="http://sodipodi.sourceforge.net/DTD/sodipodi-0.dtd" xmlns:rdf="http://www.w3.org/1999/02/22-rdf-syntax-ns#" xmlns:cc="http://creativecommons.org/ns#" xmlns:svg="http://www.w3.org/2000/svg" xmlns:dc="http://purl.org/dc/elements/1.1/" xmlns:inkscape="http://www.inkscape.org/namespaces/inkscape" inkscape:output_extension="org.inkscape.output.svg.inkscape" sodipodi:docname="SeoulMetro512x512_V2.svg" sodipodi:version="0.32"
	 xmlns="http://www.w3.org/2000/svg" xmlns:xlink="http://www.w3.org/1999/xlink" x="0px" y="0px" viewBox="0 0 450 450"
	 style="enable-background:new 0 0 450 450;" xml:space="preserve">
<style type="text/css">
	.st0{fill:#FFFFFF;}
</style>
<defs>
	
		<inkscape:perspective  id="perspective50" inkscape:persp3d-origin="320 : 213.33333 : 1" inkscape:vp_x="0 : 320 : 1" inkscape:vp_y="0 : 1000 : 0" inkscape:vp_z="640 : 320 : 1" sodipodi:type="inkscape:persp3d">
		</inkscape:perspective>
</defs>
<sodipodi:namedview  bordercolor="#666666" borderopacity="1.0" gridtolerance="10.0" guidetolerance="10.0" id="base" inkscape:current-layer="svg2" inkscape:cx="274.51163" inkscape:cy="254.02717" inkscape:pageopacity="0.0" inkscape:pageshadow="2" inkscape:window-height="1018" inkscape:window-width="1920" inkscape:window-x="-8" inkscape:window-y="-8" inkscape:zoom="0.70710678" objecttolerance="10.0" pagecolor="#ffffff" showgrid="false">
	</sodipodi:namedview>
<g id="_x23_ffffffff">
	<path id="path7" class="st0" d="M363.3,0H450v80.7c-1.3-5.7-2.2-11.4-3.9-17c-8.3-28-31.2-50.9-59.1-59.4
		C379.3,1.7,371.3,0.9,363.3,0z"/>
	<path id="path15" class="st0" d="M0,361.5c1.1,8.9,1.7,18,4.8,26.5c8.9,27.7,32.3,50.4,60.3,58.3c5.4,1.6,11.1,2.2,16.5,3.8H0
		V361.5z"/>
	<path id="path17" class="st0" d="M442.5,395.9c3.9-8.4,5.6-17.6,7.5-26.6V450h-81.7c3.8-1,7.7-1.6,11.6-2.4
		C407.4,441.7,431.4,421.8,442.5,395.9z"/>
</g>
<g id="_x23_000000ff" transform="matrix(1.4222222,0,0,1.4222222,-108.78577,-108.82242)">
	<path id="path41" d="M175.2,86.5c2.2-1.8,4.9-3.1,7.9-3c37.9,0,75.9,0,113.8,0c3.7-0.1,6.9,2.3,9.6,4.6c5.7,5.3,10.1,11.8,14,18.5
		c15.7,27.7,22.1,59.5,24.8,90.9c1.3,15.8,0.4,31.7,0.8,47.5c0.2,10.2,0.1,20.5,0.1,30.7c0,10.2-3.7,20.7-11.5,27.6
		c-8.4,7.3-19.8,10.5-30.7,10.4c14.9,22.5,30.7,44.4,45.9,66.7c1.3,1.7,1.1,4,1.4,6c-7.2,0.2-14.4,0.2-21.6,0.1
		c-1.7,0.2-2.6-1.5-3.5-2.5c-3.7-4.9-6.9-10.3-10.6-15.3c-0.8-1.4-2.3-2.2-3.9-1.9c-32.7,0-65.4,0-98.1,0c-16,0.2-32.1-0.3-48.1,0.2
		c-4.8,6.4-8.8,13.3-13.8,19.5c-7.7,0.1-15.4,0.1-23.1-0.1c0.1-2.1-0.1-4.5,1.4-6.2c15.2-22.2,30.9-44.2,45.9-66.5
		c-14,0.2-29.1-5.2-36.8-17.5c-3.7-5.7-5.4-12.6-5.2-19.4c0.1-12.4-0.1-24.9,0.1-37.4c0.3-14.4-0.3-28.9,0.5-43.3
		c2.9-32.1,9.6-64.7,26.5-92.5C164.8,97.3,169.4,91.3,175.2,86.5 M181,103.5c-7.5,7.6-13,17-17.4,26.7c-8.6,20-12.6,42-11.8,63.8
		c0.2,5.1-0.2,10.2,0.3,15.3c1.1,7.8,8.4,14.3,16.4,14.2c47.6,0,95.3,0,142.9,0c6.3,0,12.2-4.3,14.7-9.9c2.4-4.7,1.8-10,1.8-15.1
		c0.9-27-3.9-54.8-17.2-78.6c-4-6.7-8.5-13.2-14.4-18.3c-2.7-2.2-5.9-4.4-9.6-4.2c-31.2,0-62.4,0-93.6,0
		C188.3,97.1,184.3,100.4,181,103.5 M172.3,255.1c-7.8,2-13.4,10.4-11.9,18.4c1.1,6.5,6.4,11.9,12.8,13.3
		c9.8,2.4,20.3-6.6,19.5-16.6C192.5,260.2,181.8,252.2,172.3,255.1 M299.6,254.9c-7.2,1.7-13.2,8.7-12.6,16.3
		c-0.2,8,6.7,14.8,14.4,15.8c9.4,1.2,18.8-7.4,17.9-17C319.3,260.4,308.9,252.5,299.6,254.9 M197.6,313.6c0.1,3.6-0.2,7.3-2.1,10.6
		c29.5,0.3,59.1,0.1,88.6,0.1c-2-3.1-2.7-6.8-2.3-10.4c-2.1-0.3-4.3-0.4-6.4-0.3C249.5,313.6,223.6,313.3,197.6,313.6 M189.2,332.4
		c-4.6,6.9-9.7,13.6-14.1,20.7c39.5,0.1,78.9,0,118.4,0c3.7,0,7.4,0.1,11-0.3c-4.9-6.9-9.5-14-14.6-20.8c-27-0.6-54-0.1-80.9-0.3
		C202.4,332,195.7,331.3,189.2,332.4z"/>
	<path id="path43" d="M203.9,134.3c5.6,0.1,11.3-0.4,16.9,0.2c7.5,7.2,12.8,16.4,20.4,23.6c5.4-6.6,10.8-13.2,16.2-19.8
		c1.2-1.4,2.4-2.8,3.9-3.8c5.6-0.5,11.2-0.1,16.8-0.1c0,20.2-0.1,40.4,0,60.5c0,0.7,0.1,2,0.1,2.7c-6.4,0-12.8,0-19.2,0
		c0-0.8,0-2.4,0.1-3.2c-0.1-11,0.3-22.1-0.2-33.2c-6.8,6.5-11.6,14.6-18.3,21.2c-6.4-6.8-11.5-14.9-18.2-21.4
		c-0.5,11.6-0.2,23.2-0.1,34.7c-0.1,0.5-0.3,1.4-0.5,1.9c-6-0.1-12,0-18,0c0.1-2.4,0.1-4.8,0.1-7.2C204,171.7,203.9,153,203.9,134.3
		z"/>
</g>
</svg>
